HIERARCHY
ROOT Hips
{
  OFFSET 4.68556 39.8007 -17.7334
  CHANNELS 6 Xposition Yposition Zposition Zrotation Xrotation Yrotation
  JOINT LeftHip
  {
    OFFSET 3.43 7.10543e-015 2.84217e-014
    CHANNELS 6 Xposition Yposition Zposition Zrotation Xrotation Yrotation
    JOINT LeftKnee
    {
      OFFSET -1.42109e-014 -18.47 -3.19744e-014
      CHANNELS 6 Xposition Yposition Zposition Zrotation Xrotation Yrotation
      JOINT LeftAnkle
      {
        OFFSET 0 -17.95 8.88178e-016
        CHANNELS 6 Xposition Yposition Zposition Zrotation Xrotation Yrotation
        End Site
        {
          OFFSET 0 -3.12 0
        }
      }
    }
  }
  JOINT RightHip
  {
    OFFSET -3.43 2.84217e-013 0
    CHANNELS 6 Xposition Yposition Zposition Zrotation Xrotation Yrotation
    JOINT RightKnee
    {
      OFFSET 5.32907e-015 -18.47 -7.10543e-015
      CHANNELS 6 Xposition Yposition Zposition Zrotation Xrotation Yrotation
      JOINT RightAnkle
      {
        OFFSET -7.10543e-015 -17.95 3.55271e-015
        CHANNELS 6 Xposition Yposition Zposition Zrotation Xrotation Yrotation
        End Site
        {
          OFFSET 0 -3.12 0
        }
      }
    }
  }
  JOINT Chest
  {
    OFFSET -1.20792e-013 4.57 -1.77636e-014
    CHANNELS 6 Xposition Yposition Zposition Zrotation Xrotation Yrotation
    JOINT Chest2
    {
      OFFSET -7.10543e-015 6.57 -3.55271e-015
      CHANNELS 6 Xposition Yposition Zposition Zrotation Xrotation Yrotation
      JOINT LeftCollar
      {
        OFFSET 1.06 4.19 1.76
        CHANNELS 6 Xposition Yposition Zposition Zrotation Xrotation Yrotation
        JOINT LeftShoulder
        {
          OFFSET 5.81 1.42109e-014 -1.64313e-014
          CHANNELS 6 Xposition Yposition Zposition Zrotation Xrotation Yrotation
          JOINT LeftElbow
          {
            OFFSET 7.10543e-015 -12.08 1.77636e-014
            CHANNELS 6 Xposition Yposition Zposition Zrotation Xrotation Yrotation
            JOINT LeftWrist
            {
              OFFSET 1.42109e-014 -9.82 -3.55271e-015
              CHANNELS 6 Xposition Yposition Zposition Zrotation Xrotation Yrotation
              End Site
              {
                OFFSET 0 -7.37 0
              }
            }
          }
        }
      }
      JOINT RightCollar
      {
        OFFSET -1.06 4.19 1.76
        CHANNELS 6 Xposition Yposition Zposition Zrotation Xrotation Yrotation
        JOINT RightShoulder
        {
          OFFSET -6.06 2.84217e-014 1.77636e-015
          CHANNELS 6 Xposition Yposition Zposition Zrotation Xrotation Yrotation
          JOINT RightElbow
          {
            OFFSET 5.32907e-014 -11.08 1.77636e-014
            CHANNELS 6 Xposition Yposition Zposition Zrotation Xrotation Yrotation
            JOINT RightWrist
            {
              OFFSET -2.59889e-025 -9.82 2.22045e-015
              CHANNELS 6 Xposition Yposition Zposition Zrotation Xrotation Yrotation
              End Site
              {
                OFFSET 0 -7.14001 0
              }
            }
          }
        }
      }
      JOINT Neck
      {
        OFFSET -7.10543e-015 4.05 0
        CHANNELS 6 Xposition Yposition Zposition Zrotation Xrotation Yrotation
        JOINT Head
        {
          OFFSET -3.55271e-015 5.19 -3.55271e-015
          CHANNELS 6 Xposition Yposition Zposition Zrotation Xrotation Yrotation
          End Site
          {
            OFFSET 0 4.14001 0
          }
        }
      }
    }
  }
}
MOTION
Frames:	10
Frame Time:	0.0333333
5.37501 39.1379 -18.4721 -0.282352 -0.856483 -10.3485 3.43 1.61426e-013 -9.21811e-012 -4.08199 -11.2109 0.270534 -1.42109e-014 -18.47 5.23377e-013 2.33661 24.0358 10.3593 0 -17.95 8.88178e-016 -0.196026 -12.1341 -0.0207575 -3.43 3.30846e-013 0 -1.419 -20.4886 -3.53555 5.32907e-015 -18.47 -1.72979e-012 -1.04056 26.746 -3.36441 -7.10543e-015 -17.95 3.55271e-015 -1.79183 -3.32241 -0.048925 -1.20792e-013 4.57 -1.77636e-014 0.402884 3.929 -0.923857 -7.10543e-015 6.57 -3.55271e-015 0.442061 3.55443 -0.815186 1.06 4.19 1.76 -1.31847 0.598873 15.1027 5.81 1.16531e-011 -1.64313e-014 10.7554 -36.8959 -20.5786 7.10543e-015 -12.08 2.49165e-012 -2.99782 -46.8201 -9.60754 1.42109e-014 -9.82 -3.55271e-015 14.6891 3.21312 -0.419642 -1.06 4.19 1.76 6.43185 0.340083 -9.81296 -6.06 9.42765e-013 1.77636e-015 -28.7204 -42.3927 22.6908 -7.96143e-013 -11.08 8.59002e-013 13.8931 -49.8657 29.5827 -2.96928e-013 -9.82 -4.73939e-012 -21.2296 4.39698 0.828735 -7.10543e-015 4.05 0 -1.65676 -8.29214 4.53329 -3.55271e-015 5.19 -3.55271e-015 4.38256 25.4262 0.801883 
5.41654 39.1345 -18.558 0.0374381 -0.449921 -10.0369 3.43 3.32623e-013 -9.21885e-012 -4.23563 -11.6961 0.150205 -1.42109e-014 -18.47 5.37434e-013 2.10759 23.8876 9.79379 0 -17.95 8.88178e-016 0.0717595 -11.9693 0.0075528 -3.43 1.41664e-013 0 -1.99568 -18.6247 -4.03025 5.32907e-015 -18.47 -1.77239e-012 -1.19618 25.8248 -3.61724 -7.10543e-015 -17.95 3.55271e-015 1.29021 -4.78823 0.0572196 -1.20792e-013 4.57 -1.77636e-014 0.525166 3.95946 -1.28197 -7.10543e-015 6.57 -3.55271e-015 0.582767 3.5813 -1.12997 1.06 4.19 1.76 -2.34373 0.498851 15.1274 5.81 1.16898e-011 -1.64313e-014 11.59 -27.7868 -20.5431 7.10543e-015 -12.08 2.45172e-012 -5.22995 -44.8087 -9.24432 1.42109e-014 -9.82 -3.55271e-015 14.1748 5.79494 -0.728575 -1.06 4.19 1.76 6.50097 0.331988 -9.89586 -6.06 9.61948e-013 1.77636e-015 -28.7537 -37.1552 26.637 -8.13103e-013 -11.08 9.05809e-013 17.1735 -46.2744 34.1493 -3.94075e-013 -9.82 -4.83177e-012 -18.0172 5.80965 0.922132 -7.10543e-015 4.05 0 -1.81764 -8.35793 4.61988 -3.55271e-015 5.19 -3.55271e-015 3.99691 25.3604 1.12147 
5.44892 39.1181 -18.6103 0.534613 0.10285 -9.87368 3.43 4.47687e-022 -9.21919e-012 -4.52411 -12.3364 -0.0206715 -1.42109e-014 -18.47 5.51316e-013 1.83992 23.8056 9.68452 0 -17.95 8.88178e-016 0.235664 -11.883 0.0245855 -3.43 -2.93099e-014 0 -2.52958 -17.0598 -4.20269 5.32907e-015 -18.47 -1.81445e-012 -1.23753 24.6413 -2.07451 -7.10543e-015 -17.95 3.55271e-015 2.38009 -6.89635 0.138802 -1.20792e-013 4.57 -1.77636e-014 0.409427 3.90914 -1.08866 -7.10543e-015 6.57 -3.55271e-015 0.461783 3.53875 -0.954919 1.06 4.19 1.76 -2.40205 0.498508 14.7957 5.81 1.17256e-011 -1.64313e-014 12.5763 -18.2535 -20.8166 7.10543e-015 -12.08 2.40837e-012 -7.26566 -43.1434 -12.46 1.42109e-014 -9.82 -3.55271e-015 11.701 10.5428 -1.07176 -1.06 4.19 1.76 6.98785 0.297499 -10.055 -6.06 9.80764e-013 1.77636e-015 -29.5635 -29.8204 28.3152 -8.29845e-013 -11.08 9.49291e-013 19.8148 -43.8579 39.3218 -4.90163e-013 -9.82 -4.92295e-012 -11.7446 7.78103 0.785807 -7.10543e-015 4.05 0 -1.48121 -8.29865 4.28593 -3.55271e-015 5.19 -3.55271e-015 3.61315 25.1111 1.08885 
5.4608 39.1076 -18.6518 1.76621 1.21438 -10.4227 3.43 -3.75436e-013 -9.21915e-012 -5.36908 -13.3175 -0.401763 -1.42109e-014 -18.47 5.65024e-013 1.32215 23.057 10.7868 0 -17.95 8.88178e-016 0.344415 -11.5117 0.0345922 -3.43 1.47882e-013 0 -3.55747 -17.8801 -4.06623 5.32907e-015 -18.47 -1.85598e-012 -1.4284 24.8337 0.327271 -7.10543e-015 -17.95 3.55271e-015 2.24597 -8.45904 0.166393 -1.20792e-013 4.57 -1.77636e-014 -0.304572 3.44114 -0.38491 -7.10543e-015 6.57 -3.55271e-015 -0.240962 3.11393 -0.371291 1.06 4.19 1.76 -2.3684 0.504566 14.6397 5.81 1.17604e-011 -1.64313e-014 14.8519 -8.25132 -21.0023 7.10543e-015 -12.08 2.3616e-012 -8.99027 -43.3205 -18.6045 1.42109e-014 -9.82 -3.55271e-015 6.77245 15.3851 -0.907742 -1.06 4.19 1.76 7.65829 0.267417 -9.96215 -6.06 9.99195e-013 1.77636e-015 -30.5413 -20.3835 28.5328 -8.46371e-013 -11.08 9.89182e-013 21.0837 -43.2326 48.3102 -5.85198e-013 -9.82 -5.01294e-012 -5.57768 9.02984 0.450447 -7.10543e-015 4.05 0 -0.850646 -8.16184 4.00546 -3.55271e-015 5.19 -3.55271e-015 3.45788 24.8825 0.877413 
5.39061 39.1575 -18.5833 2.42317 1.91801 -10.9241 3.43 -4.84057e-013 -9.21872e-012 -5.56161 -13.3598 -0.369979 -1.42109e-014 -18.47 5.7856e-013 0.943228 21.8683 11.0433 0 -17.95 8.88178e-016 0.446034 -11.1219 0.0434924 -3.43 1.01252e-013 0 -4.10703 -18.5644 -4.16909 5.32907e-015 -18.47 -1.89698e-012 -1.36876 24.7551 0.748863 -7.10543e-015 -17.95 3.55271e-015 2.14893 -8.44001 0.158649 -1.20792e-013 4.57 -1.77636e-014 -0.628705 3.38302 0.196082 -7.10543e-015 6.57 -3.55271e-015 -0.581989 3.06059 0.133277 1.06 4.19 1.76 -2.57825 0.480285 14.8719 5.81 1.17945e-011 -1.64313e-014 17.9383 1.21705 -21.5858 7.10543e-015 -12.08 2.3114e-012 -10.4434 -44.0144 -27.3516 1.42109e-014 -9.82 -3.55271e-015 -0.188071 18.2988 0.0335764 -1.06 4.19 1.76 7.90805 0.259198 -9.88279 -6.06 1.01723e-012 1.77636e-015 -30.858 -10.5049 28.449 -8.62681e-013 -11.08 1.02522e-012 21.2962 -42.9576 56.4854 -6.79184e-013 -9.82 -5.10173e-012 -3.11668 11.2333 0.307871 -7.10543e-015 4.05 0 -0.657354 -8.29191 3.79038 -3.55271e-015 5.19 -3.55271e-015 3.86375 24.5485 0.533141 
5.29105 39.2703 -18.5108 2.01865 2.42452 -11.055 3.43 -4.8136e-013 -9.21789e-012 -4.85174 -12.9088 -0.0454986 -1.42109e-014 -18.47 5.91922e-013 0.973793 20.5291 10.31 0 -17.95 8.88178e-016 0.481991 -10.6478 0.0449531 -3.43 -4.26326e-014 0 -3.63288 -17.8435 -4.28193 5.32907e-015 -18.47 -1.93746e-012 -0.818653 22.714 0.152803 -7.10543e-015 -17.95 3.55271e-015 1.778 -7.52098 0.11711 -1.20792e-013 4.57 -1.77636e-014 -0.0817864 3.81786 0.520048 -7.10543e-015 6.57 -3.55271e-015 -0.11217 3.45339 0.487836 1.06 4.19 1.76 -3.1838 0.407099 15.4586 5.81 1.18276e-011 -1.64313e-014 21.5342 9.0617 -23.5622 7.10543e-015 -12.08 2.25775e-012 -11.9571 -44.3922 -37.9535 1.42109e-014 -9.82 -3.55271e-015 -5.567 19.5774 0.956071 -1.06 4.19 1.76 7.90273 0.242814 -10.1297 -6.06 1.03484e-012 1.77636e-015 -31.4828 -1.3154 27.9205 -8.78776e-013 -11.08 1.05713e-012 21.1813 -43.1949 57.7009 -7.72124e-013 -9.82 -5.18935e-012 -3.98116 12.6354 0.439974 -7.10543e-015 4.05 0 -1.01855 -8.55204 3.47942 -3.55271e-015 5.19 -3.55271e-015 4.17335 23.6708 0.238936 
5.20138 39.3766 -18.5093 1.94898 3.40783 -11.3234 3.43 -3.97345e-013 -9.21668e-012 -4.31058 -13.0569 0.0983872 -1.42109e-014 -18.47 6.05114e-013 0.898708 18.9874 9.4953 0 -17.95 8.88178e-016 0.581539 -9.89571 0.0501437 -3.43 1.15241e-013 0 -3.38375 -17.7601 -4.23837 5.32907e-015 -18.47 -1.97742e-012 -0.389012 20.7396 0.346908 -7.10543e-015 -17.95 3.55271e-015 1.44893 -6.59437 0.0835933 -1.20792e-013 4.57 -1.77636e-014 0.298511 3.94242 0.983485 -7.10543e-015 6.57 -3.55271e-015 0.196032 3.56086 0.95277 1.06 4.19 1.76 -3.41689 0.361537 16.3169 5.81 1.18598e-011 -1.64313e-014 25.4757 15.8168 -25.7738 7.10543e-015 -12.08 2.20066e-012 -13.4287 -44.8855 -42.4977 1.42109e-014 -9.82 -3.55271e-015 -7.38531 18.6656 1.20942 -1.06 4.19 1.76 7.77745 0.204045 -10.8438 -6.06 1.05201e-012 1.77636e-015 -32.1514 7.77769 26.8395 -8.94658e-013 -11.08 1.08465e-012 20.9153 -43.7671 55.2552 -8.64023e-013 -9.82 -5.27579e-012 -6.13293 11.1298 0.591489 -7.10543e-015 4.05 0 -1.41125 -8.42162 3.16133 -3.55271e-015 5.19 -3.55271e-015 4.27286 22.7755 -0.0266024 
5.05153 39.4312 -18.4642 1.88954 4.66178 -11.0093 3.43 -2.62013e-013 -9.21506e-012 -3.49226 -13.6709 0.582575 -1.42109e-014 -18.47 6.18134e-013 0.43843 18.3893 8.03801 0 -17.95 8.88178e-016 0.810392 -9.89062 0.0704747 -3.43 1.97311e-013 0 -3.30343 -18.1338 -4.29109 5.32907e-015 -18.47 -2.01685e-012 0.230605 19.701 1.41068 -7.10543e-015 -17.95 3.55271e-015 0.961537 -6.39695 0.0537078 -1.20792e-013 4.57 -1.77636e-014 0.613665 3.70823 0.991634 -7.10543e-015 6.57 -3.55271e-015 0.478509 3.3452 0.9901 1.06 4.19 1.76 -2.94878 0.387342 17.4591 5.81 1.18912e-011 -1.64313e-014 29.1493 22.4589 -27.0028 7.10543e-015 -12.08 2.14012e-012 -13.7623 -45.975 -40.0848 1.42109e-014 -9.82 -3.55271e-015 -6.74285 16.0995 0.96005 -1.06 4.19 1.76 7.15826 0.173034 -12.0058 -6.06 1.06873e-012 1.77636e-015 -32.9388 16.1684 25.9755 -9.10327e-013 -11.08 1.10752e-012 20.7245 -45.0602 48.2439 -9.54885e-013 -9.82 -5.36106e-012 -6.03228 8.70314 0.472139 -7.10543e-015 4.05 0 -1.75827 -8.0073 3.00489 -3.55271e-015 5.19 -3.55271e-015 4.57061 22.4196 -0.232881 
4.96046 39.4082 -18.4393 2.16517 5.64488 -10.0785 3.43 -1.05364e-013 -9.21305e-012 -3.349 -14.6052 0.677392 -1.42109e-014 -18.47 6.30984e-013 0.0726701 18.7081 7.74815 0 -17.95 8.88178e-016 0.859719 -10.2691 0.0773333 -3.43 2.03948e-013 0 -4.16664 -19.1007 -5.14302 5.32907e-015 -18.47 -2.05577e-012 1.09339 20.4667 2.48568 -7.10543e-015 -17.95 3.55271e-015 0.453122 -7.12535 0.0277501 -1.20792e-013 4.57 -1.77636e-014 0.690839 3.68086 0.551523 -7.10543e-015 6.57 -3.55271e-015 0.582288 3.32444 0.596326 1.06 4.19 1.76 -2.22283 0.454746 18.6107 5.81 1.19217e-011 -1.64313e-014 32.6179 28.4797 -27.8341 7.10543e-015 -12.08 2.0761e-012 -13.5315 -47.5046 -35.622 1.42109e-014 -9.82 -3.55271e-015 -4.55586 13.9187 0.558472 -1.06 4.19 1.76 6.1672 0.183758 -13.1748 -6.06 1.08499e-012 1.77636e-015 -34.1106 23.4482 25.8086 -9.25784e-013 -11.08 1.12546e-012 20.5197 -46.562 39.5079 -1.04472e-012 -9.82 -5.44516e-012 -4.9391 7.54517 0.323749 -7.10543e-015 4.05 0 -1.9802 -7.60267 2.97122 -3.55271e-015 5.19 -3.55271e-015 4.79762 22.4875 -0.415455 
4.91764 39.3335 -18.4715 2.43681 6.26962 -8.83366 3.43 4.25997e-014 -9.21063e-012 -3.61317 -15.9611 0.379972 -1.42109e-014 -18.47 6.43664e-013 0.0714212 19.8278 8.57257 0 -17.95 8.88178e-016 0.568492 -10.6539 0.0530118 -3.43 1.75354e-013 0 -5.17054 -20.2681 -6.20567 5.32907e-015 -18.47 -2.09417e-012 1.78501 22.129 2.13958 -7.10543e-015 -17.95 3.55271e-015 0.169297 -8.15406 0.0121492 -1.20792e-013 4.57 -1.77636e-014 0.78076 4.1084 0.17462 -7.10543e-015 6.57 -3.55271e-015 0.694371 3.71757 0.266871 1.06 4.19 1.76 -1.27474 0.571768 19.3137 5.81 1.19513e-011 -1.64313e-014 35.6838 33.2207 -28.2811 7.10543e-015 -12.08 2.00862e-012 -12.886 -49.1702 -29.6082 1.42109e-014 -9.82 -3.55271e-015 -3.21261 12.5341 0.349777 -1.06 4.19 1.76 4.91 0.236882 -14.4291 -6.06 1.10075e-012 1.77636e-015 -35.5666 29.7259 26.7018 -9.41029e-013 -11.08 1.13822e-012 20.2905 -47.95 35.4778 -1.13352e-012 -9.82 -5.5281e-012 -6.20558 7.91136 0.432947 -7.10543e-015 4.05 0 -2.31951 -7.31332 2.76644 -3.55271e-015 5.19 -3.55271e-015 5.23245 22.4163 -0.845136 
